<?xml version="1.0" encoding="UTF-8" standalone="no"?>
<!-- Created with Inkscape (http://www.inkscape.org/) -->

<svg
   xmlns:dc="http://purl.org/dc/elements/1.1/"
   xmlns:cc="http://creativecommons.org/ns#"
   xmlns:rdf="http://www.w3.org/1999/02/22-rdf-syntax-ns#"
   xmlns:svg="http://www.w3.org/2000/svg"
   xmlns="http://www.w3.org/2000/svg"
   xmlns:sodipodi="http://sodipodi.sourceforge.net/DTD/sodipodi-0.dtd"
   xmlns:inkscape="http://www.inkscape.org/namespaces/inkscape"
   width="48"
   height="48"
   id="svg2"
   version="1.1"
   inkscape:version="0.48.4 r9939"
   sodipodi:docname="genericPersonSilhouette.svg">
  <defs
     id="defs4" />
  <sodipodi:namedview
     id="base"
     pagecolor="#ffffff"
     bordercolor="#666666"
     borderopacity="1.0"
     inkscape:pageopacity="0.0"
     inkscape:pageshadow="2"
     inkscape:zoom="11.2"
     inkscape:cx="28.041434"
     inkscape:cy="23.233882"
     inkscape:document-units="px"
     inkscape:current-layer="layer1"
     showgrid="false"
     inkscape:window-width="1317"
     inkscape:window-height="744"
     inkscape:window-x="49"
     inkscape:window-y="24"
     inkscape:window-maximized="1" />
  <metadata
     id="metadata7">
    <rdf:RDF>
      <cc:Work
         rdf:about="">
        <dc:format>image/svg+xml</dc:format>
        <dc:type
           rdf:resource="http://purl.org/dc/dcmitype/StillImage" />
        <dc:title></dc:title>
      </cc:Work>
    </rdf:RDF>
  </metadata>
  <g
     inkscape:label="Layer 1"
     inkscape:groupmode="layer"
     id="layer1"
     transform="translate(0,-1004.3622)"
     style="display:inline"
     sodipodi:insensitive="true">
    <path
       sodipodi:type="arc"
       style="fill:#d9534f;fill-opacity:1;stroke:#f9f0ee;stroke-width:0.34898305;stroke-miterlimit:4;stroke-opacity:1;stroke-dasharray:none"
       id="path2983"
       sodipodi:cx="28.080357"
       sodipodi:cy="30.008928"
       sodipodi:rx="16.383928"
       sodipodi:ry="16.383928"
       d="m 44.464285,30.008928 a 16.383928,16.383928 0 1 1 -32.767857,0 16.383928,16.383928 0 1 1 32.767857,0 z"
       transform="matrix(1.4413308,0,0,1.4413308,-16.499869,985.22548)" />
  </g>
  <g
     inkscape:groupmode="layer"
     id="layer2"
     inkscape:label="Layer"
     style="display:inline"
     sodipodi:insensitive="true">
    <path
       style="fill:none;stroke:#000000;stroke-width:1px;stroke-linecap:butt;stroke-linejoin:miter;stroke-opacity:1"
       d="m 5.9821428,34.160714 c -0.9850128,-1.831792 0.679215,-4.61351 2.9464286,-4.196428 2.7260106,0.501482 2.8571426,2.321428 6.7857146,1.875 3.928571,-0.446429 3.571428,-5.357143 1.160714,-7.232143 -2.410714,-1.875 -4.615444,-8.320023 -3.392857,-13.035714 0.625,-2.4107147 3.214286,-5.1785719 5.625,-5.8035719 2.410714,-0.625 11.071429,-1.6964285 13.214286,3.4821429 2.269636,5.484954 0.535714,9.642857 -0.714286,12.321428 -1.25,2.678572 -2.5,7.767858 -2.410714,9.732143 0.08929,1.964286 5.089285,1.25 7.053571,0.178572 1.964286,-1.071429 7.857143,-2.142857 8.125001,0.625"
       id="path3759"
       inkscape:connector-curvature="0"
       sodipodi:nodetypes="csssssssssc" />
  </g>
</svg>
